<svg version="1.1" xmlns="http://www.w3.org/2000/svg" width="32" height="32" viewBox="0 0 32 32">
<symbol id="icon-close" viewBox="0 0 32 32" fill="currentColor">
<path d="M15.521 17.33l-6.333 6.338c-0.237 0.237-0.539 0.356-0.905 0.356s-0.668-0.118-0.905-0.355c-0.237-0.237-0.356-0.539-0.356-0.905s0.118-0.668 0.355-0.905l6.333-6.338-6.338-6.333c-0.237-0.237-0.356-0.539-0.356-0.905s0.118-0.668 0.355-0.905c0.237-0.237 0.539-0.356 0.905-0.356s0.668 0.118 0.905 0.355l6.338 6.333 6.333-6.338c0.237-0.237 0.539-0.356 0.905-0.356s0.668 0.118 0.905 0.355c0.237 0.237 0.356 0.539 0.356 0.905s-0.118 0.668-0.355 0.905l-6.333 6.338 6.338 6.333c0.237 0.237 0.356 0.539 0.356 0.905s-0.118 0.668-0.355 0.905c-0.237 0.237-0.539 0.356-0.905 0.356s-0.668-0.118-0.905-0.355l-6.338-6.333z"></path>
</symbol>
<symbol id="icon-arrow-down" viewBox="0 0 32 32" fill="currentColor">
<path d="M25.474 10.559c-0.495 0-0.944 0.201-1.268 0.526l-7.801 7.798c-0.2 0.2-0.264 0.251-0.404 0.386-0.14-0.135-0.204-0.186-0.404-0.386l-7.801-7.798c-0.325-0.325-0.773-0.525-1.268-0.525s-0.944 0.201-1.268 0.525v0c-0.325 0.325-0.525 0.773-0.525 1.268s0.201 0.944 0.525 1.268l7.798 7.798c0.419 0.419 0.745 0.755 1.143 1.074s0.994 0.71 1.801 0.71c0.807 0 1.403-0.391 1.801-0.71s0.725-0.655 1.143-1.074l7.798-7.798c0.325-0.325 0.525-0.773 0.525-1.268s-0.201-0.944-0.525-1.268v0c-0.325-0.325-0.773-0.526-1.268-0.526h-0z"></path>
</symbol>
<symbol id="icon-burger-menu" viewBox="0 0 32 32" fill="currentColor">
<path d="M4 6.666c-0 0-0 0-0.001 0-0.736 0-1.333 0.597-1.333 1.333 0 0 0 0 0 0.001v-0c0 0 0 0 0 0.001 0 0.736 0.597 1.333 1.333 1.333 0 0 0 0 0.001 0h24c0 0 0 0 0.001 0 0.736 0 1.333-0.597 1.333-1.333 0-0 0-0 0-0.001v0c0-0 0-0 0-0.001 0-0.736-0.597-1.333-1.333-1.333-0 0-0 0-0.001 0h0zM4 14.666c-0 0-0 0-0.001 0-0.736 0-1.333 0.597-1.333 1.333 0 0 0 0 0 0.001v-0c0 0 0 0 0 0.001 0 0.736 0.597 1.333 1.333 1.333 0 0 0 0 0.001 0h24c0 0 0 0 0.001 0 0.736 0 1.333-0.597 1.333-1.333 0-0 0-0 0-0.001v0c0-0 0-0 0-0.001 0-0.736-0.597-1.333-1.333-1.333-0 0-0 0-0.001 0h0zM4 22.666c-0 0-0 0-0.001 0-0.736 0-1.333 0.597-1.333 1.333 0 0 0 0 0 0.001v-0c0 0 0 0 0 0.001 0 0.736 0.597 1.333 1.333 1.333 0 0 0 0 0.001 0h24c0 0 0 0 0.001 0 0.736 0 1.333-0.597 1.333-1.333 0-0 0-0 0-0.001v0c0-0 0-0 0-0.001 0-0.736-0.597-1.333-1.333-1.333-0 0-0 0-0.001 0h0z"></path>
</symbol>
</svg>
